<?xml version="1.0" encoding="iso-8859-1"?>
<!-- Uploaded to: SVG Repo, www.svgrepo.com, Generator: SVG Repo Mixer Tools -->
<svg fill="#000000" height="800px" width="800px" version="1.1" id="Layer_1" xmlns="http://www.w3.org/2000/svg" xmlns:xlink="http://www.w3.org/1999/xlink" 
	 viewBox="0 0 512 512" xml:space="preserve">
<g>
	<g>
		<path d="M490.667,341.333v-256c0-23.531-19.136-42.667-42.667-42.667H64c-23.531,0-42.667,19.136-42.667,42.667v256
			C9.536,341.333,0,350.891,0,362.667v64c0,23.531,19.136,42.667,42.667,42.667h426.667c23.531,0,42.667-19.136,42.667-42.667v-64
			C512,350.891,502.464,341.333,490.667,341.333z M362.667,128c0-11.776,9.536-21.333,21.333-21.333
			c11.797,0,21.333,9.557,21.333,21.333v170.667c0,11.776-9.536,21.333-21.333,21.333c-11.797,0-21.333-9.557-21.333-21.333V128z
			 M277.333,170.667c0-11.776,9.536-21.333,21.333-21.333c11.797,0,21.333,9.557,21.333,21.333v128
			c0,11.776-9.536,21.333-21.333,21.333c-11.797,0-21.333-9.557-21.333-21.333V170.667z M234.667,256v42.667
			c0,11.776-9.536,21.333-21.333,21.333C201.536,320,192,310.443,192,298.667V256c0-11.776,9.536-21.333,21.333-21.333
			C225.131,234.667,234.667,244.224,234.667,256z M91.584,198.251l48.917-48.917H128c-11.797,0-21.333-9.557-21.333-21.333
			s9.536-21.333,21.333-21.333h64c0.277,0,0.512,0.149,0.789,0.149c2.496,0.107,4.992,0.491,7.381,1.472
			c0.021,0.021,0.043,0.021,0.064,0.043c0.192,0.085,0.341,0.235,0.533,0.32c2.112,0.96,3.989,2.261,5.632,3.797
			c0.555,0.512,0.981,1.067,1.472,1.643c1.195,1.344,2.176,2.816,3.008,4.437c0.341,0.683,0.683,1.301,0.96,2.027
			c0.875,2.347,1.493,4.821,1.493,7.445v64c0,11.776-9.536,21.333-21.333,21.333s-21.333-9.557-21.333-21.333v-12.501
			l-48.917,48.917c-4.16,4.16-9.621,6.251-15.083,6.251c-5.461,0-10.923-2.091-15.083-6.251
			C83.243,220.075,83.243,206.592,91.584,198.251z M149.333,277.333v21.333c0,11.776-9.536,21.333-21.333,21.333
			c-11.797,0-21.333-9.557-21.333-21.333v-21.333c0-11.776,9.536-21.333,21.333-21.333C139.797,256,149.333,265.557,149.333,277.333
			z M42.667,426.667V384h140.501l15.083,15.083c3.989,4.011,9.408,6.251,15.083,6.251h85.333c5.675,0,11.093-2.24,15.083-6.251
			L328.832,384h140.501l0.021,42.667H42.667z"/>
	</g>
</g>
</svg>